<?xml version="1.0" encoding="utf-8"?>
<!-- Generator: Adobe Illustrator 23.0.4, SVG Export Plug-In . SVG Version: 6.00 Build 0)  -->
<svg version="1.1" id="Livello_1" xmlns="http://www.w3.org/2000/svg" xmlns:xlink="http://www.w3.org/1999/xlink" x="0px" y="0px"
	 viewBox="0 0 1016 240.6" style="enable-background:new 0 0 1016 240.6;" xml:space="preserve">
<style type="text/css">
	.st0{fill-rule:evenodd;clip-rule:evenodd;fill:#FFFFFF;}
	.st1{fill:#FFFFFF;}
	.st2{enable-background:new    ;}
	.st3{fill:#00B8E9;}
</style>
<title>Tavola disegno 3</title>
<path class="st0" d="M82.8,0c20.9,0,41,8.1,56.2,22.6c32.3-31,83.6-30,114.6,2.3c0,0,0,0,0.1,0.1C269.3,41.1,278,62.6,278,85v93.8
	h-56.6v-54.9c6.6-0.4,13.6-5.3,17-12.4c4.2-8.9,1.5-18-6.2-20.3c-1.9-0.6-4-0.7-6-0.3c1-1.8,1.8-3.8,2.2-5.9
	c2.4-10.7-3.4-20.4-12.9-21.8c-7.1-1.1-14.4,2.8-18.6,9.4c-4.3-9.3-14.7-13.7-23.5-9.7s-12.7,14.2-9.4,23.8
	c-2.2-0.5-4.6-0.5-6.8-0.1c-9.3,2-13.7,12.1-10,22.6c3.5,9.6,12.7,16.3,21.5,15.8V179h-59.6v-73.2c8.1-0.5,16.2-6.8,19.4-15.7
	c3.8-10.5-0.7-20.6-10-22.6c-2.3-0.5-4.6-0.5-6.8,0.1c3.3-9.5-0.7-20-9.3-23.8s-19.1,0.5-23.5,9.7c-4.2-6.5-11.4-10.4-18.6-9.4
	C50.7,45.5,45,55.3,47.4,65.9c0.5,2.1,1.2,4,2.2,5.9c-2-0.3-4-0.2-6,0.3c-7.7,2.3-10.5,11.4-6.2,20.3c3.8,7.9,11.9,13,19,12.4v74H0
	V85.1c0-22.4,8.7-43.9,24.3-60l0.1-0.1l0.1-0.1C39.7,9.1,60.8,0.1,82.8,0z"/>
<path class="st0" d="M298.8,179h26.1v-51.3c0-1.1,0.1-2.2,0.2-3.4c0.1-1.2,0.4-2.3,0.8-3.4c0.6-1.6,1.4-3.2,2.4-4.6
	c1.1-1.5,2.5-2.8,4.2-3.7c1.8-1,3.8-1.6,5.9-1.5c2.5-0.1,5,0.8,6.9,2.4c2,1.8,3.4,4,4.1,6.6c1,3.2,1.4,6.5,1.3,9.8V179h26.1v-51.5
	c0-1.2,0.1-2.4,0.2-3.6c0.1-1.2,0.4-2.3,0.8-3.4c0.6-1.7,1.5-3.3,2.6-4.8c1.1-1.4,2.5-2.6,4.2-3.4c1.7-0.9,3.6-1.3,5.6-1.4
	c3.9-0.2,7.6,1.8,9.6,5.3c2.1,3.5,3.2,8.4,3.1,14.9V179H429v-51.8c0.1-5.7-0.6-11.5-2.2-17c-1.2-4.3-3.3-8.4-6.1-11.9
	c-2.5-3-5.6-5.4-9.2-6.9c-3.7-1.6-7.6-2.4-11.6-2.3c-3,0-5.9,0.3-8.8,1.1c-2.7,0.7-5.2,1.8-7.6,3.2c-2.1,1.3-4,2.8-5.8,4.5
	c-2,1.8-3.8,3.9-5.2,6.1h-0.3c-1.2-3-3-5.7-5.2-7.9c-2.3-2.3-5.1-4-8.1-5.2c-3.3-1.2-6.8-1.8-10.2-1.8c-3.3,0-6.6,0.4-9.8,1.4
	c-2.6,0.8-5.2,2-7.5,3.5c-1.9,1.3-3.7,2.8-5.3,4.5c-1.3,1.4-2.5,2.9-3.6,4.5h-0.5l-1.2-11.9H298c0.2,3.8,0.3,8.2,0.5,12.8
	s0.2,9.8,0.2,15.2V179H298.8z M514.7,126.9c0.1-4.9-0.6-9.9-1.9-14.6c-1.2-4.4-3.3-8.6-6.2-12.1c-3.2-3.6-7.2-6.4-11.7-8.2
	c-4.9-2-10.8-3-18-3.1c-4.8,0-9.6,0.4-14.3,1.3c-3.8,0.7-7.6,1.7-11.2,3c-2.7,0.9-5.3,2.1-7.8,3.6l4.9,17.6c2.1-1.3,4.4-2.4,6.8-3.3
	c2.7-1,5.4-1.8,8.2-2.4c2.9-0.6,5.9-0.9,8.8-0.9c2.7-0.1,5.4,0.3,8,1.1c1.8,0.5,3.4,1.5,4.8,2.8c1,1,1.8,2.3,2.2,3.7
	c0.4,1.2,0.6,2.5,0.6,3.8v1.3c-7-0.1-13.9,0.5-20.8,2c-5.6,1.1-11,3.2-15.9,6.2c-4.2,2.6-7.8,6.1-10.3,10.4
	c-2.5,4.6-3.7,9.7-3.6,14.9c0,3.5,0.7,6.9,1.9,10.1c1.2,3.2,3.1,6.1,5.5,8.6c2.5,2.6,5.4,4.6,8.8,6c3.7,1.5,7.7,2.3,11.8,2.2
	c4.8,0,9.6-0.9,14.1-2.7c4.1-1.8,7.7-4.5,10.6-8h0.5l1.6,8.9h24.2c-0.3-1.9-0.6-3.9-0.7-5.9c-0.2-2.2-0.3-4.7-0.4-7.3
	s-0.1-5.4-0.1-8.2v-30.8L514.7,126.9z M488.6,146.9c0,0.8,0,1.6-0.1,2.4c-0.1,0.8-0.2,1.5-0.4,2.3c-0.6,1.9-1.6,3.6-2.9,5.1
	c-4.1,4.7-10.7,6.2-16.4,3.8c-1.6-0.8-2.9-2-3.8-3.5c-1-1.8-1.5-3.8-1.4-5.8c-0.1-3.1,1.1-6.1,3.3-8.3c2.5-2.2,5.6-3.7,8.9-4.3
	c4.2-0.9,8.5-1.3,12.8-1.1L488.6,146.9L488.6,146.9z M530.5,74.3v16.6H519v20.2h11.4v36c-0.1,5.3,0.5,10.6,1.8,15.8
	c1,3.9,2.9,7.4,5.6,10.4c2.4,2.5,5.2,4.3,8.4,5.5c3.7,1.5,7.7,2.2,11.7,2.2c3.4,0,6.9-0.2,10.2-0.7c2.4-0.4,4.8-1,7.2-1.8l-0.2-20.7
	c-0.8,0.2-1.7,0.3-2.4,0.4l-2.4,0.2c-0.8,0-1.9,0.1-3.1,0.1c-2.2,0.1-4.4-0.4-6.3-1.6c-1.7-1.2-2.8-3.1-3.2-5.1
	c-0.7-2.9-1.1-5.8-0.9-8.8v-31.8H576V90.9h-19.2V67L530.5,74.3L530.5,74.3z M659.1,143.6c0.2-1,0.4-2.5,0.6-4.3s0.3-4.1,0.3-6.4
	c0-4.3-0.4-8.7-1.3-12.9c-0.8-4.2-2.2-8.2-4.2-12c-1.9-3.7-4.4-7-7.3-9.9c-3.1-2.9-6.8-5.2-10.8-6.7c-4.7-1.7-9.7-2.5-14.7-2.4
	c-5.5-0.1-10.9,0.8-16,2.7c-4.5,1.7-8.7,4.2-12.3,7.4c-3.4,3.1-6.3,6.7-8.6,10.6c-2.2,4-3.9,8.3-5.1,12.7c-1.1,4.4-1.7,8.9-1.7,13.5
	c0,9.2,1.8,17.2,5.4,23.9c3.5,6.7,9,12.1,15.7,15.6c6.8,3.7,15.2,5.4,24.9,5.5c5.6,0,11.2-0.5,16.7-1.4c5-0.9,9.8-2.3,14.5-4.2
	l-3.5-18.6c-3.6,1.2-7.4,2.1-11.2,2.6c-4.2,0.6-8.4,1-12.7,0.9c-3,0-6-0.3-8.9-1c-2.7-0.6-5.2-1.7-7.6-3.1c-2.2-1.3-4-3.1-5.4-5.2
	c-1.4-2.2-2.2-4.8-2.4-7.4L659.1,143.6z M603.4,124.9c0.2-2,0.6-4,1.3-5.9c0.7-2.1,1.7-4,3-5.8c1.4-1.8,3.1-3.3,5-4.4
	c2.2-1.2,4.7-1.8,7.2-1.7c2.6-0.1,5.3,0.6,7.6,1.8c1.9,1.1,3.5,2.7,4.7,4.6c1.1,1.8,1.8,3.7,2.3,5.8c0.4,1.8,0.6,3.7,0.6,5.6H603.4z
	"/>
<path class="st0" d="M730.2,156.4c-2.2,1-4.5,1.7-6.8,2.1c-2.8,0.5-5.6,0.8-8.5,0.8c-3.1,0-6.2-0.5-9.2-1.5c-2.8-1-5.3-2.6-7.5-4.7
	c-2.2-2.2-3.9-4.8-5.1-7.7c-1.2-3.4-1.9-7-1.8-10.6c-0.1-4.4,0.8-8.8,2.7-12.8c1.8-3.6,4.6-6.6,8.1-8.7c3.7-2.1,7.9-3.2,12.2-3.2
	c3,0,6,0.3,8.9,0.8c2.1,0.4,4.1,1,6.1,1.9l4.2-20.3c-2-0.8-4.1-1.4-6.2-1.9c-2.3-0.5-4.7-0.9-7.1-1.1c-2.4-0.3-4.8-0.4-7.2-0.4
	c-7.2-0.1-14.4,1.1-21.2,3.7c-5.8,2.2-11,5.6-15.4,10.1c-4.1,4.2-7.3,9.3-9.4,14.9c-2.1,5.8-3.2,12-3.2,18.2
	c0.1,9.3,1.9,17.3,5.7,24c3.6,6.6,9.1,12,15.8,15.6c6.8,3.7,14.8,5.4,24.1,5.5c3.2,0,6.4-0.2,9.6-0.6c2.8-0.3,5.5-0.8,8.2-1.5
	c2.1-0.5,4.1-1.1,6-2L730.2,156.4L730.2,156.4z M812.9,126.9c0.1-4.9-0.6-9.9-1.9-14.7c-1.2-4.4-3.3-8.5-6.2-12.1
	c-3.1-3.7-7.2-6.5-11.7-8.2c-4.9-2-10.8-3-18-3.1c-4.8,0-9.6,0.4-14.3,1.3c-3.8,0.7-7.6,1.7-11.2,3c-2.7,1-5.3,2.1-7.8,3.5l4.9,17.6
	c2.1-1.3,4.4-2.4,6.7-3.3c2.7-1,5.4-1.8,8.2-2.4c2.9-0.6,5.8-0.9,8.8-0.9c2.7-0.1,5.4,0.3,8,1.1c1.8,0.5,3.4,1.5,4.7,2.8
	c1,1,1.8,2.3,2.3,3.7c0.4,1.2,0.6,2.5,0.6,3.8v1.3c-7-0.1-13.9,0.5-20.7,2c-5.6,1.1-11,3.2-15.9,6.2c-4.2,2.6-7.7,6.2-10.2,10.5
	c-2.5,4.6-3.7,9.7-3.6,14.9c0,3.5,0.7,6.9,1.9,10.1c1.2,3.2,3.1,6.1,5.5,8.6c2.5,2.6,5.4,4.6,8.7,6c3.7,1.5,7.7,2.3,11.7,2.2
	c4.8,0.1,9.6-0.9,14-2.8c4.1-1.8,7.7-4.5,10.6-8h0.5l1.6,8.9h24.1c-0.2-1.6-0.5-3.6-0.7-5.9s-0.3-4.7-0.4-7.3s-0.1-5.4-0.1-8.2
	v-30.6H812.9z M786.9,146.9c0,0.8,0,1.6-0.1,2.4c-0.1,0.8-0.2,1.5-0.4,2.3c-0.6,1.9-1.6,3.6-2.9,5.1c-4.1,4.7-10.7,6.2-16.4,3.8
	c-1.6-0.8-2.9-2-3.7-3.5c-1-1.8-1.5-3.8-1.4-5.8c-0.1-3.1,1.1-6.1,3.3-8.3c2.5-2.2,5.6-3.7,8.9-4.3c4.2-0.9,8.5-1.3,12.7-1.1
	L786.9,146.9L786.9,146.9z M828.7,74.3v16.6h-11.4v20.2h11.4v36c-0.1,5.3,0.5,10.6,1.8,15.8c1,3.9,2.9,7.4,5.6,10.4
	c2.3,2.5,5.2,4.3,8.4,5.5c3.7,1.5,7.7,2.2,11.6,2.2c3.4,0,6.8-0.2,10.2-0.8c2.4-0.4,4.8-1,7.2-1.8l-0.2-20.7
	c-0.8,0.2-1.7,0.3-2.4,0.4s-1.6,0.2-2.4,0.3s-1.9,0.1-3.1,0.1c-2.2,0.1-4.4-0.4-6.3-1.6c-1.7-1.3-2.8-3.1-3.3-5.1
	c-0.7-2.8-1-5.8-0.9-8.7v-31.8H874V90.9h-19.1V67L828.7,74.3L828.7,74.3z"/>
<path class="st1" d="M893.6,109V94.1H888v-2h13.5v2h-5.6V109H893.6z M903.7,109V92.1h3.4l4,11.9c0.3,1.1,0.7,2,0.8,2.5
	c0.2-0.6,0.5-1.5,0.9-2.7L917,92h3v16.9h-2.2V94.7l-4.9,14.2h-2L906,94.6v14.3L903.7,109L903.7,109L903.7,109z"/>
<g class="st2">
	<path class="st1" d="M698.1,230.8c0.2,0.7,0.4,1.2,0.4,1.6s0,0.7-0.2,0.9c-0.2,0.2-0.6,0.3-1.1,0.4c-0.5,0-1.3,0.1-2.2,0.1
		c-1,0-1.7,0-2.3,0s-1-0.1-1.2-0.2c-0.3-0.1-0.5-0.2-0.6-0.4s-0.2-0.3-0.3-0.6l-2.5-7.4h-13.8l-2.3,7.2c-0.1,0.3-0.2,0.5-0.3,0.7
		c-0.1,0.2-0.3,0.3-0.6,0.4c-0.3,0.1-0.7,0.2-1.2,0.2s-1.2,0.1-2,0.1c-0.9,0-1.6,0-2-0.1c-0.5-0.1-0.8-0.2-1-0.4
		c-0.2-0.2-0.3-0.5-0.2-0.9s0.2-0.9,0.4-1.6l11.3-32.6c0.1-0.3,0.2-0.6,0.4-0.8c0.2-0.2,0.4-0.4,0.7-0.5c0.3-0.1,0.8-0.2,1.4-0.2
		s1.4,0,2.3,0c1.1,0,2,0,2.7,0s1.2,0.1,1.5,0.2c0.4,0.1,0.6,0.3,0.8,0.5c0.2,0.2,0.3,0.5,0.4,0.9L698.1,230.8z M681.2,203.9
		L681.2,203.9l-5.2,15.6h10.4L681.2,203.9z"/>
	<path class="st1" d="M723.4,230.4c0,0.6,0,1-0.1,1.4s-0.1,0.7-0.2,1c-0.1,0.3-0.2,0.4-0.4,0.6c-0.1,0.1-0.3,0.2-0.5,0.2h-16.8
		c-0.6,0-1.1-0.2-1.6-0.6s-0.6-1-0.6-1.8v-33.4c0-0.2,0.1-0.4,0.2-0.5s0.3-0.3,0.6-0.4c0.3-0.1,0.7-0.2,1.1-0.2s1.1-0.1,1.8-0.1
		c0.7,0,1.3,0,1.8,0.1s0.9,0.1,1.1,0.2s0.5,0.2,0.6,0.4s0.2,0.3,0.2,0.5v29.5h11.6c0.2,0,0.4,0.1,0.5,0.2c0.1,0.1,0.3,0.3,0.4,0.5
		s0.2,0.5,0.2,0.9S723.4,229.9,723.4,230.4z"/>
	<path class="st1" d="M735.3,232.5c0,0.2-0.1,0.4-0.2,0.5s-0.3,0.3-0.6,0.4c-0.3,0.1-0.7,0.2-1.1,0.2c-0.5,0.1-1.1,0.1-1.8,0.1
		c-0.7,0-1.3,0-1.8-0.1s-0.9-0.1-1.1-0.2s-0.5-0.2-0.6-0.4s-0.2-0.3-0.2-0.5v-34.7c0-0.2,0.1-0.4,0.2-0.5s0.3-0.3,0.6-0.4
		s0.7-0.2,1.2-0.2c0.5-0.1,1.1-0.1,1.8-0.1c0.7,0,1.3,0,1.8,0.1c0.5,0.1,0.9,0.1,1.1,0.2c0.3,0.1,0.5,0.2,0.6,0.4s0.2,0.3,0.2,0.5
		V232.5z"/>
	<path class="st1" d="M772.8,202.5c0,0.5,0,1-0.1,1.4s-0.1,0.7-0.2,1s-0.2,0.4-0.3,0.5c-0.1,0.1-0.3,0.1-0.4,0.1
		c-0.2,0-0.6-0.2-1.2-0.5c-0.5-0.3-1.3-0.7-2.2-1.1s-2-0.8-3.2-1.1c-1.3-0.3-2.7-0.5-4.4-0.5c-1.8,0-3.4,0.3-4.8,0.9
		c-1.4,0.6-2.7,1.5-3.7,2.6s-1.8,2.5-2.4,4.1c-0.5,1.6-0.8,3.3-0.8,5.2c0,2.1,0.3,4,0.8,5.5c0.6,1.6,1.3,2.9,2.3,4
		c1,1.1,2.2,1.9,3.6,2.4c1.4,0.5,3,0.8,4.7,0.8c0.8,0,1.7-0.1,2.5-0.3c0.8-0.2,1.6-0.5,2.3-0.9v-8.5h-7c-0.3,0-0.6-0.2-0.8-0.6
		s-0.3-1.1-0.3-2.2c0-0.5,0-1,0.1-1.3s0.1-0.6,0.2-0.9c0.1-0.2,0.2-0.4,0.3-0.5c0.1-0.1,0.3-0.2,0.5-0.2h12.4c0.3,0,0.6,0.1,0.8,0.2
		c0.2,0.1,0.4,0.3,0.6,0.5s0.3,0.5,0.4,0.8c0.1,0.3,0.1,0.6,0.1,1v14.6c0,0.6-0.1,1.1-0.3,1.5s-0.6,0.8-1.2,1
		c-0.6,0.2-1.4,0.5-2.3,0.8c-0.9,0.3-1.8,0.5-2.8,0.7c-1,0.2-2,0.3-3,0.4c-1,0.1-2,0.1-3,0.1c-2.9,0-5.6-0.4-7.9-1.3
		c-2.3-0.8-4.3-2.1-5.9-3.7c-1.6-1.6-2.8-3.5-3.7-5.8c-0.9-2.3-1.3-4.9-1.3-7.8c0-3,0.5-5.7,1.4-8.1s2.2-4.4,3.9-6.1s3.7-3,6-3.8
		c2.4-0.9,5-1.3,7.9-1.3c1.6,0,3,0.1,4.3,0.3s2.4,0.5,3.4,0.8c1,0.3,1.8,0.6,2.4,1c0.6,0.4,1.1,0.7,1.3,0.9c0.3,0.3,0.4,0.6,0.6,1.1
		C772.7,200.9,772.8,201.6,772.8,202.5z"/>
	<path class="st1" d="M810.6,231c0,0.4-0.1,0.8-0.2,1.2c-0.2,0.3-0.4,0.6-0.6,0.9c-0.3,0.2-0.6,0.4-0.9,0.5
		c-0.3,0.1-0.7,0.2-1.1,0.2h-3.2c-0.7,0-1.2-0.1-1.7-0.2c-0.5-0.1-0.9-0.4-1.3-0.7c-0.4-0.4-0.8-0.8-1.2-1.4
		c-0.4-0.6-0.8-1.4-1.3-2.3l-9.1-17.2c-0.5-1-1.1-2.1-1.6-3.3s-1-2.3-1.5-3.4h-0.1c0.1,1.4,0.1,2.7,0.2,4.1c0,1.4,0.1,2.7,0.1,4.2
		v19.2c0,0.2-0.1,0.4-0.2,0.5c-0.1,0.2-0.3,0.3-0.5,0.4c-0.3,0.1-0.6,0.2-1,0.2s-1,0.1-1.7,0.1c-0.7,0-1.2,0-1.6-0.1s-0.8-0.1-1-0.2
		c-0.2-0.1-0.4-0.2-0.5-0.4c-0.1-0.2-0.1-0.3-0.1-0.5v-33c0-0.9,0.3-1.6,0.8-2c0.5-0.4,1.2-0.7,1.9-0.7h4c0.7,0,1.3,0.1,1.8,0.2
		s0.9,0.3,1.3,0.6c0.4,0.3,0.8,0.7,1.1,1.2c0.3,0.5,0.7,1.1,1,1.9l7.2,13.4c0.4,0.8,0.8,1.6,1.2,2.4c0.4,0.8,0.8,1.6,1.2,2.4
		c0.4,0.8,0.7,1.6,1.1,2.3c0.4,0.8,0.7,1.5,1,2.3h0c-0.1-1.3-0.1-2.7-0.1-4.1c0-1.4,0-2.8,0-4.1v-17.2c0-0.2,0.1-0.4,0.2-0.5
		c0.1-0.2,0.3-0.3,0.6-0.4c0.3-0.1,0.6-0.2,1-0.2c0.4,0,1-0.1,1.7-0.1c0.6,0,1.2,0,1.6,0.1c0.4,0,0.8,0.1,1,0.2
		c0.2,0.1,0.4,0.2,0.5,0.4c0.1,0.2,0.1,0.3,0.1,0.5V231z"/>
	<path class="st1" d="M840.4,230.6c0,0.5,0,1-0.1,1.4s-0.1,0.7-0.2,0.9c-0.1,0.2-0.2,0.4-0.4,0.5c-0.1,0.1-0.3,0.2-0.5,0.2h-18.5
		c-0.6,0-1.1-0.2-1.6-0.6s-0.6-1-0.6-1.8v-32c0-0.8,0.2-1.4,0.6-1.8c0.4-0.4,1-0.6,1.6-0.6h18.3c0.2,0,0.3,0,0.5,0.1
		s0.2,0.3,0.3,0.5s0.2,0.5,0.2,0.9c0,0.4,0.1,0.8,0.1,1.4c0,0.5,0,1-0.1,1.3c0,0.4-0.1,0.7-0.2,0.9c-0.1,0.2-0.2,0.4-0.3,0.5
		c-0.1,0.1-0.3,0.2-0.5,0.2h-13.1v9h11.1c0.2,0,0.3,0.1,0.5,0.2c0.1,0.1,0.3,0.3,0.4,0.5c0.1,0.2,0.2,0.5,0.2,0.9s0.1,0.8,0.1,1.3
		c0,0.5,0,1-0.1,1.4s-0.1,0.6-0.2,0.9c-0.1,0.2-0.2,0.4-0.4,0.5s-0.3,0.1-0.5,0.1h-11.1v10.4h13.2c0.2,0,0.3,0.1,0.5,0.2
		c0.1,0.1,0.3,0.3,0.4,0.5c0.1,0.2,0.2,0.5,0.2,0.9C840.4,229.6,840.4,230.1,840.4,230.6z"/>
	<path class="st1" d="M874.2,232.6c0,0.2,0,0.4-0.1,0.5c-0.1,0.1-0.3,0.3-0.5,0.4s-0.7,0.2-1.2,0.2s-1.3,0.1-2.2,0.1
		c-0.8,0-1.4,0-1.9-0.1c-0.5,0-0.8-0.1-1.1-0.2c-0.3-0.1-0.5-0.2-0.6-0.4c-0.1-0.2-0.2-0.4-0.3-0.6l-3.3-8.2
		c-0.4-0.9-0.8-1.8-1.2-2.5c-0.4-0.7-0.8-1.3-1.3-1.8c-0.5-0.5-1-0.8-1.6-1.1c-0.6-0.2-1.3-0.4-2.1-0.4h-2.3v14
		c0,0.2-0.1,0.4-0.2,0.5c-0.1,0.2-0.3,0.3-0.6,0.4c-0.3,0.1-0.7,0.2-1.1,0.2s-1.1,0.1-1.8,0.1c-0.7,0-1.3,0-1.8-0.1
		s-0.9-0.1-1.1-0.2s-0.5-0.2-0.6-0.4c-0.1-0.2-0.2-0.3-0.2-0.5v-33.4c0-0.8,0.2-1.4,0.6-1.8c0.4-0.4,1-0.6,1.6-0.6h9.5
		c1,0,1.8,0,2.4,0.1c0.6,0,1.2,0.1,1.7,0.1c1.5,0.2,2.8,0.6,4,1.1s2.2,1.2,3,2s1.5,1.8,1.9,2.9c0.4,1.1,0.7,2.4,0.7,3.9
		c0,1.2-0.2,2.4-0.5,3.4c-0.3,1-0.8,1.9-1.4,2.7s-1.4,1.5-2.2,2.1c-0.9,0.6-1.9,1.1-3,1.4c0.5,0.3,1.1,0.6,1.5,1
		c0.5,0.4,0.9,0.8,1.4,1.4c0.4,0.5,0.8,1.2,1.2,1.8c0.4,0.7,0.7,1.5,1.1,2.3l3.1,7.2c0.3,0.7,0.5,1.2,0.6,1.6
		S874.2,232.4,874.2,232.6z M864.6,207.7c0-1.2-0.3-2.2-0.8-3.1s-1.4-1.4-2.7-1.8c-0.4-0.1-0.8-0.2-1.3-0.2s-1.1-0.1-2-0.1h-3.3V213
		h3.8c1.1,0,2-0.1,2.8-0.4c0.8-0.3,1.5-0.6,2-1.1c0.5-0.5,0.9-1,1.2-1.7C864.5,209.2,864.6,208.5,864.6,207.7z"/>
</g>
<g class="st2">
	<path class="st3" d="M919.4,222.6c0,1.3-0.2,2.5-0.5,3.5s-0.9,2-1.5,2.8c-0.6,0.8-1.4,1.5-2.3,2.1c-0.9,0.6-1.8,1.1-2.9,1.4
		c-1.1,0.4-2.2,0.7-3.4,0.8c-1.2,0.2-2.5,0.3-4,0.3h-9.8c-0.6,0-1.1-0.2-1.6-0.6s-0.6-1-0.6-1.8v-32c0-0.8,0.2-1.4,0.6-1.8
		c0.4-0.4,1-0.6,1.6-0.6h9.2c2.3,0,4.2,0.2,5.7,0.6c1.6,0.4,2.9,1,3.9,1.7c1.1,0.8,1.9,1.7,2.5,2.9c0.6,1.2,0.9,2.6,0.9,4.1
		c0,0.9-0.1,1.7-0.3,2.5c-0.2,0.8-0.6,1.5-1,2.1s-1,1.2-1.6,1.7s-1.4,0.9-2.2,1.2c1,0.2,2,0.5,2.9,1s1.6,1.1,2.3,1.8
		c0.7,0.7,1.2,1.6,1.5,2.6C919.3,220.2,919.4,221.3,919.4,222.6z M909.8,207.1c0-0.7-0.1-1.4-0.3-2c-0.2-0.6-0.6-1.1-1-1.5
		s-1-0.7-1.7-0.9c-0.7-0.2-1.6-0.3-2.8-0.3h-3.8v9.5h4.2c1.1,0,1.9-0.1,2.6-0.4c0.6-0.3,1.2-0.6,1.6-1s0.7-1,1-1.6
		C909.7,208.4,909.8,207.8,909.8,207.1z M911.7,222.8c0-0.9-0.1-1.6-0.4-2.3c-0.3-0.7-0.7-1.2-1.2-1.7s-1.2-0.8-2.1-1
		s-2-0.4-3.3-0.4h-4.4v10.4h5.4c1,0,1.9-0.1,2.6-0.3s1.3-0.5,1.8-1c0.5-0.4,0.9-1,1.2-1.6C911.6,224.4,911.7,223.6,911.7,222.8z"/>
	<path class="st3" d="M947.2,230.6c0,0.5,0,1-0.1,1.4s-0.1,0.7-0.2,0.9c-0.1,0.2-0.2,0.4-0.4,0.5c-0.1,0.1-0.3,0.2-0.5,0.2h-18.4
		c-0.6,0-1.1-0.2-1.6-0.6s-0.6-1-0.6-1.8v-32c0-0.8,0.2-1.4,0.6-1.8c0.4-0.4,1-0.6,1.6-0.6H946c0.2,0,0.3,0,0.5,0.1
		c0.1,0.1,0.2,0.3,0.3,0.5s0.2,0.5,0.2,0.9c0,0.4,0.1,0.8,0.1,1.4c0,0.5,0,1-0.1,1.3c0,0.4-0.1,0.7-0.2,0.9
		c-0.1,0.2-0.2,0.4-0.3,0.5c-0.1,0.1-0.3,0.2-0.5,0.2h-13.1v9H944c0.2,0,0.3,0.1,0.5,0.2c0.1,0.1,0.3,0.3,0.4,0.5s0.2,0.5,0.2,0.9
		s0.1,0.8,0.1,1.3c0,0.5,0,1-0.1,1.4s-0.1,0.6-0.2,0.9s-0.2,0.4-0.4,0.5s-0.3,0.1-0.5,0.1h-11.1v10.4h13.2c0.2,0,0.3,0.1,0.5,0.2
		c0.1,0.1,0.3,0.3,0.4,0.5c0.1,0.2,0.2,0.5,0.2,0.9C947.2,229.6,947.2,230.1,947.2,230.6z"/>
</g>
<g class="st2">
	<path class="st3" d="M978.2,199.9c0,0.5,0,1-0.1,1.4c0,0.4-0.1,0.7-0.2,0.9c-0.1,0.2-0.2,0.4-0.4,0.5c-0.1,0.1-0.3,0.2-0.5,0.2
		h-9.2v29.6c0,0.2-0.1,0.4-0.2,0.5s-0.3,0.3-0.6,0.4c-0.3,0.1-0.7,0.2-1.2,0.2s-1.1,0.1-1.8,0.1c-0.7,0-1.3,0-1.8-0.1
		c-0.5-0.1-0.9-0.1-1.2-0.2c-0.3-0.1-0.5-0.2-0.6-0.4c-0.1-0.2-0.2-0.3-0.2-0.5v-29.6h-9.2c-0.2,0-0.4-0.1-0.5-0.2
		c-0.1-0.1-0.2-0.3-0.3-0.5s-0.2-0.5-0.2-0.9s-0.1-0.9-0.1-1.4c0-0.6,0-1,0.1-1.4s0.1-0.7,0.2-1s0.2-0.4,0.3-0.5
		c0.1-0.1,0.3-0.2,0.5-0.2h25.9c0.2,0,0.3,0.1,0.5,0.2c0.1,0.1,0.3,0.3,0.4,0.5c0.1,0.2,0.2,0.6,0.2,1
		C978.2,198.9,978.2,199.3,978.2,199.9z"/>
</g>
<g class="st2">
	<path class="st3" d="M1008.1,230.8c0.2,0.7,0.4,1.2,0.4,1.6s0,0.7-0.2,0.9c-0.2,0.2-0.6,0.3-1.1,0.4c-0.5,0-1.3,0.1-2.2,0.1
		c-1,0-1.7,0-2.3,0s-1-0.1-1.2-0.2c-0.3-0.1-0.5-0.2-0.6-0.4s-0.2-0.3-0.3-0.6l-2.5-7.4h-13.8l-2.3,7.2c-0.1,0.3-0.2,0.5-0.3,0.7
		c-0.1,0.2-0.3,0.3-0.6,0.4c-0.3,0.1-0.7,0.2-1.2,0.2s-1.2,0.1-2,0.1c-0.9,0-1.6,0-2-0.1c-0.5-0.1-0.8-0.2-1-0.4
		c-0.2-0.2-0.3-0.5-0.2-0.9s0.2-0.9,0.4-1.6l11.3-32.6c0.1-0.3,0.2-0.6,0.4-0.8c0.2-0.2,0.4-0.4,0.7-0.5c0.3-0.1,0.8-0.2,1.4-0.2
		s1.4,0,2.3,0c1.1,0,2,0,2.7,0s1.2,0.1,1.5,0.2c0.4,0.1,0.6,0.3,0.8,0.5c0.2,0.2,0.3,0.5,0.4,0.9L1008.1,230.8z M991.2,203.9
		L991.2,203.9l-5.2,15.6h10.4L991.2,203.9z"/>
</g>
</svg>
