<svg id="Livello_1" data-name="Livello 1" xmlns="http://www.w3.org/2000/svg" viewBox="0 0 24 24"><defs><style>.cls-1{fill:#010101;}</style></defs><title>Tavola disegno 1</title><path class="cls-1" d="M21.69,22.15H2.29a1.92,1.92,0,0,1-1.53-.72,1.83,1.83,0,0,1-.1-2.05L10.42,2.82a1.84,1.84,0,0,1,3.14,0l9.77,16.58a1.81,1.81,0,0,1-.11,2A1.91,1.91,0,0,1,21.69,22.15Zm-9.91-18L2.44,20a.24.24,0,0,0,.2.36H21.35a.24.24,0,0,0,.21-.36L12.19,4.1A.24.24,0,0,0,11.78,4.1Z"/><path class="cls-1" d="M13.63,17.1A1.64,1.64,0,1,1,12,15.46,1.65,1.65,0,0,1,13.63,17.1ZM10.54,9.51l.28,4.88a.47.47,0,0,0,.49.41h1.36a.47.47,0,0,0,.49-.41l.28-4.88A.46.46,0,0,0,13,9.06H11A.46.46,0,0,0,10.54,9.51Z"/></svg>