<svg id="Livello_1" data-name="Livello 1" xmlns="http://www.w3.org/2000/svg" viewBox="0 0 24 24"><defs><style>.cls-1{fill:#010101;}</style></defs><title>Tavola disegno 1 copia</title><path class="cls-1" d="M21.69,22.15H2.29a1.92,1.92,0,0,1-1.53-.72,1.83,1.83,0,0,1-.1-2.05L10.42,2.82a1.84,1.84,0,0,1,3.14,0l9.77,16.58a1.81,1.81,0,0,1-.11,2A1.91,1.91,0,0,1,21.69,22.15Zm-9.91-18L2.44,20a.24.24,0,0,0,.2.36H21.35a.24.24,0,0,0,.21-.36L12.19,4.1A.24.24,0,0,0,11.78,4.1Z"/><path class="cls-1" d="M12.38,17a2,2,0,0,1-2-1.84L9,14a4.47,4.47,0,0,0-.51.77.41.41,0,0,0,0,.4,4.42,4.42,0,0,0,3.93,2.46,4.2,4.2,0,0,0,1.08-.15L12.74,17A2,2,0,0,1,12.38,17Zm4.35.81L15.2,16.62a4.82,4.82,0,0,0,1.12-1.42.41.41,0,0,0,0-.4,4.44,4.44,0,0,0-3.94-2.45,4.23,4.23,0,0,0-2,.52L8.59,11.51a.22.22,0,0,0-.31,0h0L8,11.89a.25.25,0,0,0,0,.32l8.14,6.29a.23.23,0,0,0,.31,0h0l.28-.35A.23.23,0,0,0,16.73,17.8Zm-2.55-2-.54-.42a1.14,1.14,0,0,0,.07-.41A1.29,1.29,0,0,0,12,13.73a.61.61,0,0,1,.13.39.59.59,0,0,1,0,.13l-1-.78A2,2,0,0,1,12.38,13a2,2,0,0,1,2,2h0a1.92,1.92,0,0,1-.2.83Z"/></svg>